<svg width="141" height="50" viewBox="0 0 141 50" fill="none" xmlns="http://www.w3.org/2000/svg">
<path d="M20.3803 6.02414C19.5 5 12.0363 2.52789 7.00022 7.00007C1.96418 11.4722 3.50011 19.5 5.45276 20.9428" stroke="#2E119B" stroke-width="3" stroke-linecap="round" stroke-linejoin="round"/>
<path d="M37.208 34V17.2H44.288C45.28 17.2 46.168 17.44 46.952 17.92C47.752 18.384 48.384 19.024 48.848 19.84C49.328 20.64 49.568 21.544 49.568 22.552C49.568 23.592 49.328 24.528 48.848 25.36C48.384 26.176 47.752 26.832 46.952 27.328C46.168 27.808 45.28 28.048 44.288 28.048H40.664V34H37.208ZM40.64 24.904H43.928C44.52 24.904 45.016 24.688 45.416 24.256C45.832 23.808 46.04 23.256 46.04 22.6C46.04 21.944 45.832 21.408 45.416 20.992C45.016 20.56 44.52 20.344 43.928 20.344H40.64V24.904Z" fill="#494D4B"/>
<path d="M57.9589 34.24C56.6629 34.24 55.5109 33.96 54.5029 33.4C53.4949 32.824 52.7029 32.04 52.1269 31.048C51.5509 30.056 51.2629 28.92 51.2629 27.64C51.2629 26.376 51.5509 25.248 52.1269 24.256C52.7029 23.264 53.4949 22.488 54.5029 21.928C55.5109 21.352 56.6629 21.064 57.9589 21.064C59.2229 21.064 60.3589 21.352 61.3669 21.928C62.3749 22.488 63.1669 23.264 63.7429 24.256C64.3189 25.248 64.6069 26.376 64.6069 27.64C64.6069 28.92 64.3189 30.056 63.7429 31.048C63.1669 32.04 62.3749 32.824 61.3669 33.4C60.3589 33.96 59.2229 34.24 57.9589 34.24ZM57.9589 31.384C58.5989 31.384 59.1749 31.224 59.6869 30.904C60.1989 30.568 60.5909 30.12 60.8629 29.56C61.1509 29 61.2949 28.36 61.2949 27.64C61.2949 26.92 61.1509 26.28 60.8629 25.72C60.5909 25.16 60.1989 24.72 59.6869 24.4C59.1749 24.08 58.5989 23.92 57.9589 23.92C57.3029 23.92 56.7189 24.08 56.2069 24.4C55.6949 24.72 55.2949 25.16 55.0069 25.72C54.7189 26.28 54.5749 26.92 54.5749 27.64C54.5749 28.36 54.7189 29 55.0069 29.56C55.2949 30.12 55.6949 30.568 56.2069 30.904C56.7189 31.224 57.3029 31.384 57.9589 31.384Z" fill="#494D4B"/>
<path d="M72.2122 34.24C71.0922 34.24 70.0922 33.96 69.2122 33.4C68.3322 32.824 67.6362 32.04 67.1242 31.048C66.6282 30.056 66.3802 28.928 66.3802 27.664C66.3802 26.384 66.6282 25.248 67.1242 24.256C67.6362 23.264 68.3322 22.488 69.2122 21.928C70.0922 21.352 71.0922 21.064 72.2122 21.064C72.9802 21.064 73.7082 21.216 74.3962 21.52C75.1002 21.824 75.6682 22.216 76.1002 22.696V16.24H79.388V34H76.2682L76.2202 32.488C75.8042 32.984 75.2362 33.4 74.5162 33.736C73.7962 34.072 73.0282 34.24 72.2122 34.24ZM72.9322 31.504C73.9082 31.504 74.7002 31.152 75.3082 30.448C75.9162 29.728 76.2202 28.8 76.2202 27.664C76.2202 26.512 75.9162 25.584 75.3082 24.88C74.7002 24.16 73.9082 23.8 72.9322 23.8C71.9562 23.8 71.1642 24.16 70.5562 24.88C69.9482 25.584 69.6442 26.512 69.6442 27.664C69.6442 28.8 69.9482 29.728 70.5562 30.448C71.1642 31.152 71.9562 31.504 72.9322 31.504Z" fill="#494D4B"/>
<path d="M10.879 39.558C9.731 39.558 8.85633 39.271 8.255 38.697C7.681 38.123 7.394 37.385 7.394 36.483C7.394 35.6357 7.62633 34.8703 8.091 34.187C8.55567 33.4763 9.157 32.916 9.895 32.506C10.633 32.0687 11.412 31.85 12.232 31.85C12.97 31.85 13.6123 32.0003 14.159 32.301V14.835L30.313 10.735V30.866C30.313 32.342 29.9987 33.613 29.37 34.679C28.7687 35.745 27.976 36.5513 26.992 37.098C26.008 37.6447 24.9693 37.918 23.876 37.918C22.728 37.918 21.8533 37.631 21.252 37.057C20.6507 36.483 20.35 35.745 20.35 34.843C20.35 33.9957 20.5823 33.2303 21.047 32.547C21.539 31.8363 22.154 31.276 22.892 30.866C23.63 30.4287 24.409 30.21 25.229 30.21C25.9397 30.21 26.5683 30.3603 27.115 30.661V15.45L17.316 18.156V32.506C17.316 33.982 17.0017 35.253 16.373 36.319C15.7717 37.385 14.979 38.1913 13.995 38.738C13.011 39.2847 11.9723 39.558 10.879 39.558Z" fill="#FF44CB"/>
<path d="M88.208 34.24C87.008 34.24 85.928 33.952 84.968 33.376C84.024 32.8 83.272 32.016 82.712 31.024C82.168 30.032 81.896 28.904 81.896 27.64C81.896 26.392 82.168 25.272 82.712 24.28C83.272 23.288 84.024 22.504 84.968 21.928C85.928 21.352 87.008 21.064 88.208 21.064C89.344 21.064 90.376 21.272 91.304 21.688C92.248 22.104 92.984 22.688 93.512 23.44L91.712 25.6C91.376 25.136 90.912 24.744 90.32 24.424C89.728 24.088 89.128 23.92 88.52 23.92C87.848 23.92 87.248 24.088 86.72 24.424C86.208 24.744 85.8 25.184 85.496 25.744C85.208 26.304 85.064 26.936 85.064 27.64C85.064 28.344 85.216 28.976 85.52 29.536C85.824 30.096 86.24 30.544 86.768 30.88C87.296 31.2 87.888 31.36 88.544 31.36C89.168 31.36 89.744 31.224 90.272 30.952C90.8 30.664 91.28 30.264 91.712 29.752L93.512 31.912C92.968 32.616 92.216 33.184 91.256 33.616C90.296 34.032 89.28 34.24 88.208 34.24Z" fill="#494D4B"/>
<path d="M100.472 34.24C99.416 34.24 98.464 33.952 97.616 33.376C96.768 32.8 96.088 32.016 95.576 31.024C95.08 30.032 94.832 28.904 94.832 27.64C94.832 26.344 95.08 25.208 95.576 24.232C96.088 23.24 96.776 22.464 97.64 21.904C98.52 21.344 99.512 21.064 100.616 21.064C101.512 21.064 102.296 21.248 102.968 21.616C103.64 21.968 104.176 22.432 104.576 23.008V21.328H107.84V34H104.552V32.296C104.104 32.856 103.52 33.32 102.8 33.688C102.096 34.056 101.32 34.24 100.472 34.24ZM101.36 31.384C102.336 31.384 103.128 31.04 103.736 30.352C104.344 29.664 104.648 28.76 104.648 27.64C104.648 26.52 104.344 25.616 103.736 24.928C103.128 24.24 102.336 23.896 101.36 23.896C100.4 23.896 99.616 24.24 99.008 24.928C98.416 25.616 98.12 26.52 98.12 27.64C98.12 28.76 98.416 29.664 99.008 30.352C99.616 31.04 100.4 31.384 101.36 31.384Z" fill="#494D4B"/>
<path d="M115.531 34.24C114.363 34.24 113.323 34.048 112.411 33.664C111.499 33.28 110.763 32.736 110.203 32.032L112.267 30.28C112.747 30.808 113.291 31.192 113.899 31.432C114.507 31.656 115.123 31.768 115.747 31.768C116.243 31.768 116.643 31.656 116.947 31.432C117.251 31.208 117.403 30.896 117.403 30.496C117.403 30.144 117.259 29.864 116.971 29.656C116.683 29.464 115.995 29.224 114.907 28.936C113.291 28.52 112.147 27.952 111.475 27.232C110.883 26.592 110.587 25.8 110.587 24.856C110.587 24.104 110.811 23.448 111.259 22.888C111.707 22.312 112.299 21.864 113.035 21.544C113.771 21.224 114.571 21.064 115.435 21.064C116.427 21.064 117.363 21.24 118.243 21.592C119.123 21.944 119.859 22.424 120.451 23.032L118.675 24.976C118.227 24.56 117.707 24.216 117.115 23.944C116.539 23.656 116.003 23.512 115.507 23.512C114.355 23.512 113.779 23.912 113.779 24.712C113.795 25.096 113.971 25.4 114.307 25.624C114.627 25.848 115.355 26.112 116.491 26.416C118.011 26.816 119.083 27.344 119.707 28C120.251 28.56 120.523 29.304 120.523 30.232C120.523 31 120.299 31.688 119.851 32.296C119.419 32.904 118.827 33.384 118.075 33.736C117.323 34.072 116.475 34.24 115.531 34.24Z" fill="#494D4B"/>
<path d="M124.249 34V24.28H121.849V21.328H124.249V18.088H127.513V21.328H130.177V24.28H127.513V34H124.249Z" fill="#494D4B"/>
<path d="M132.376 34V21.328H135.544L135.592 23.416C136.008 22.728 136.552 22.168 137.224 21.736C137.912 21.288 138.632 21.064 139.384 21.064C139.672 21.064 139.936 21.088 140.176 21.136C140.432 21.168 140.648 21.216 140.824 21.28L139.936 24.88C139.76 24.784 139.536 24.704 139.264 24.64C138.992 24.576 138.72 24.544 138.448 24.544C137.664 24.544 137 24.816 136.456 25.36C135.928 25.888 135.664 26.56 135.664 27.376V34H132.376Z" fill="#494D4B"/>
<path d="M18.5645 11.0233C16.8887 9.72255 13.2913 9.16791 11.0608 11.4648C8.83024 13.7617 9.26773 17.2342 10.51 19.0935" stroke="#2E119B" stroke-width="3" stroke-linecap="round" stroke-linejoin="round"/>
</svg>
