<svg width="43" height="43" viewBox="0 0 43 43" fill="none" xmlns="http://www.w3.org/2000/svg">
<path fill-rule="evenodd" clip-rule="evenodd" d="M17.5 12C16.6716 12 16 12.6716 16 13.5V29.5C16 30.3284 16.6716 31 17.5 31C18.3284 31 19 30.3284 19 29.5V13.5C19 12.6716 18.3284 12 17.5 12ZM25.5 12C24.6716 12 24 12.6716 24 13.5V29.5C24 30.3284 24.6716 31 25.5 31C26.3284 31 27 30.3284 27 29.5V13.5C27 12.6716 26.3284 12 25.5 12Z" fill="#32363E"/>
<path fill-rule="evenodd" clip-rule="evenodd" d="M32.9487 0.978628H9.41391C4.73467 0.978628 0.941391 4.92195 0.941391 9.78628V32.2947C0.941391 37.1591 4.73467 41.1024 9.41391 41.1024H32.9487C37.6279 41.1024 41.4212 37.1591 41.4212 32.2947V9.78628C41.4212 4.92195 37.6279 0.978628 32.9487 0.978628ZM9.41391 0C4.21475 0 0 4.38147 0 9.78628V32.2947C0 37.6996 4.21475 42.081 9.41391 42.081H32.9487C38.1478 42.081 42.3626 37.6996 42.3626 32.2947V9.78628C42.3626 4.38147 38.1478 0 32.9487 0H9.41391Z" fill="#32363E"/>
</svg>
