<svg width="43" height="43" viewBox="0 0 43 43" fill="none" xmlns="http://www.w3.org/2000/svg">
<path d="M17.4412 13.1562C16.8169 12.7373 16 13.2101 16 13.9902V28.8422C16 29.6223 16.8169 30.0951 17.4412 29.6762L28.5098 22.2503C29.0889 21.8617 29.0889 20.9706 28.5098 20.5822L17.4412 13.1562Z" fill="#32363E"/>
<path fill-rule="evenodd" clip-rule="evenodd" d="M32.9487 0.978628H9.41391C4.73467 0.978628 0.941391 4.92195 0.941391 9.78628V32.2947C0.941391 37.1591 4.73467 41.1024 9.41391 41.1024H32.9487C37.6279 41.1024 41.4212 37.1591 41.4212 32.2947V9.78628C41.4212 4.92195 37.6279 0.978628 32.9487 0.978628ZM9.41391 0C4.21475 0 0 4.38147 0 9.78628V32.2947C0 37.6996 4.21475 42.081 9.41391 42.081H32.9487C38.1478 42.081 42.3626 37.6996 42.3626 32.2947V9.78628C42.3626 4.38147 38.1478 0 32.9487 0H9.41391Z" fill="#32363E"/>
</svg>
