<svg width="43" height="43" viewBox="0 0 43 43" fill="none" xmlns="http://www.w3.org/2000/svg">
<path fill-rule="evenodd" clip-rule="evenodd" d="M33.2785 1.03994H9.74374C5.0645 1.03994 1.27122 4.98326 1.27122 9.84759V32.356C1.27122 37.2204 5.0645 41.1637 9.74374 41.1637H33.2785C37.9578 41.1637 41.751 37.2204 41.751 32.356V9.84759C41.751 4.98326 37.9578 1.03994 33.2785 1.03994ZM9.74374 0.0613098C4.54458 0.0613098 0.329834 4.44278 0.329834 9.84759V32.356C0.329834 37.7609 4.54458 42.1423 9.74374 42.1423H33.2785C38.4777 42.1423 42.6924 37.7609 42.6924 32.356V9.84759C42.6924 4.44278 38.4777 0.0613098 33.2785 0.0613098H9.74374Z" fill="#32363E"/>
<path d="M17.0363 15.4053C16.4203 15.0047 15.6272 15.473 15.6272 16.2372L15.6272 28.371C15.6272 29.1352 16.4203 29.6035 17.0363 29.2029L27.6467 22.3041L17.0363 15.4053Z" fill="#32363E"/>
<path d="M28.5713 15.466C28.5713 14.9265 28.1573 14.4891 27.6467 14.4891C27.1361 14.4891 26.7221 14.9265 26.7221 15.466L26.7221 29.1423C26.7221 29.6818 27.1361 30.1192 27.6467 30.1192C28.1573 30.1192 28.5713 29.6818 28.5713 29.1423L28.5713 15.466Z" fill="#32363E"/>
</svg>
