<svg width="45" height="43" viewBox="0 0 45 43" fill="none" xmlns="http://www.w3.org/2000/svg">
<path d="M27.3043 29.203C27.9764 29.6036 28.8416 29.1353 28.8416 28.3711V16.2373C28.8416 15.4731 27.9764 15.0048 27.3043 15.4054L15.7293 22.3041L27.3043 29.203Z" fill="#32363E"/>
<path d="M14.7207 29.1423C14.7207 29.6818 15.1723 30.1192 15.7293 30.1192C16.2864 30.1192 16.738 29.6818 16.738 29.1423V15.466C16.738 14.9265 16.2864 14.4891 15.7293 14.4891C15.1723 14.4891 14.7207 14.9265 14.7207 15.466V29.1423Z" fill="#32363E"/>
<path fill-rule="evenodd" clip-rule="evenodd" d="M34.4635 1.03994H10.275C5.46579 1.03994 1.56715 4.98326 1.56715 9.84759V32.356C1.56715 37.2204 5.46579 41.1637 10.275 41.1637H34.4635C39.2728 41.1637 43.1714 37.2204 43.1714 32.356V9.84759C43.1714 4.98326 39.2728 1.03994 34.4635 1.03994ZM10.275 0.0613098C4.93144 0.0613098 0.599609 4.44278 0.599609 9.84759V32.356C0.599609 37.7609 4.93144 42.1423 10.275 42.1423H34.4635C39.8071 42.1423 44.1389 37.7609 44.1389 32.356V9.84759C44.1389 4.44278 39.8071 0.0613098 34.4635 0.0613098H10.275Z" fill="#32363E"/>
</svg>
