<svg width="44" height="43" viewBox="0 0 44 43" fill="none" xmlns="http://www.w3.org/2000/svg">
<path fill-rule="evenodd" clip-rule="evenodd" d="M23.5759 12.5598C23.944 12.1951 24.5401 12.1958 24.9073 12.5615L26.7901 14.4364C27.0592 14.7044 27.1391 15.1071 26.9925 15.4565C26.846 15.8059 26.5018 16.0331 26.1208 16.032L19.3917 16.0124L19.3904 16.0124C16.8847 16.0131 14.8269 18.0597 14.8269 20.5608C14.8269 21.81 15.339 22.9465 16.1691 23.7726C16.5364 24.1381 16.5358 24.7302 16.1678 25.0951C15.7998 25.4599 15.2038 25.4594 14.8365 25.0938C13.6708 23.9337 12.9441 22.3284 12.9441 20.5608C12.9441 17.0309 15.841 14.1421 19.3917 14.1421H19.3944L23.8482 14.1551L23.5743 13.8823C23.2071 13.5167 23.2079 12.9246 23.5759 12.5598Z" fill="#32363E"/>
<path fill-rule="evenodd" clip-rule="evenodd" d="M28.5482 16.3109C28.9162 15.946 29.5122 15.9466 29.8795 16.3121C31.0452 17.4723 31.7719 19.0775 31.7719 20.8451C31.7719 24.3751 28.875 27.2639 25.3243 27.2639L25.3216 27.2639L20.8678 27.2509L21.1417 27.5236C21.5089 27.8893 21.5081 28.4814 21.1401 28.8461C20.772 29.2108 20.1759 29.2101 19.8087 28.8445L17.9259 26.9695C17.6568 26.7015 17.5769 26.2988 17.7235 25.9494C17.87 25.6 18.2142 25.3729 18.5952 25.374L25.3243 25.3936H25.3255C27.8312 25.393 29.8891 23.3463 29.8891 20.8451C29.8891 19.5959 29.377 18.4594 28.5469 17.6333C28.1796 17.2678 28.1802 16.6757 28.5482 16.3109Z" fill="#32363E"/>
<path fill-rule="evenodd" clip-rule="evenodd" d="M33.8639 1.24225H9.67541C4.86619 1.24225 0.967541 5.18557 0.967541 10.0499V32.5584C0.967541 37.4227 4.86619 41.366 9.67541 41.366H33.8639C38.6731 41.366 42.5718 37.4227 42.5718 32.5584V10.0499C42.5718 5.18557 38.6731 1.24225 33.8639 1.24225ZM9.67541 0.263622C4.33183 0.263622 0 4.64509 0 10.0499V32.5584C0 37.9632 4.33183 42.3446 9.67541 42.3446H33.8639C39.2075 42.3446 43.5393 37.9632 43.5393 32.5584V10.0499C43.5393 4.64509 39.2075 0.263622 33.8639 0.263622H9.67541Z" fill="#32363E"/>
</svg>
