<svg width="45" height="44" viewBox="0 0 45 44" fill="none" xmlns="http://www.w3.org/2000/svg">
<path fill-rule="evenodd" clip-rule="evenodd" d="M27.8455 17.9844C27.2028 17.9826 26.603 18.3093 26.2481 18.8539L20.3131 27.9503C19.5998 29.0422 18.3979 29.6964 17.1121 29.6899L14.8333 29.6782C14.3055 29.6755 13.8797 29.2361 13.8823 28.6967C13.885 28.1574 14.3151 27.7223 14.843 27.725L17.1215 27.7368C17.1216 27.7368 17.1215 27.7368 17.1215 27.7368C17.7644 27.74 18.3655 27.4133 18.7227 26.8666C18.7227 26.8666 18.7227 26.8667 18.7227 26.8666L24.6569 17.7713C24.657 17.7712 24.6568 17.7715 24.6569 17.7713C25.3687 16.6794 26.5696 16.0274 27.8516 16.0313L32.0464 16.0469C32.5742 16.0489 33.0006 16.4877 32.9987 17.027C32.9968 17.5664 32.5673 18.002 32.0394 18.0001L27.8455 17.9844C27.8457 17.9844 27.8454 17.9844 27.8455 17.9844Z" fill="#32363E"/>
<path fill-rule="evenodd" clip-rule="evenodd" d="M29.4552 26.0578C29.8285 25.6764 30.4337 25.6764 30.807 26.0578L32.7186 28.011C33.0919 28.3923 33.0919 29.0107 32.7186 29.3921L30.807 31.3453C30.4337 31.7266 29.8285 31.7266 29.4552 31.3453C29.082 30.9639 29.082 30.3455 29.4552 29.9641L30.691 28.7015L29.4552 27.4389C29.082 27.0575 29.082 26.4392 29.4552 26.0578Z" fill="#32363E"/>
<path fill-rule="evenodd" clip-rule="evenodd" d="M17.1798 16.0342C18.4158 16.0277 19.5781 16.6318 20.3007 17.6553L21.2461 18.9954C21.5548 19.4329 21.4579 20.0433 21.0297 20.3587C20.6015 20.6741 20.0041 20.5751 19.6954 20.1376L18.7503 18.7979C18.7502 18.7979 18.7504 18.798 18.7503 18.7979C18.389 18.2864 17.8078 17.9841 17.1897 17.9873C17.1897 17.9873 17.1898 17.9873 17.1897 17.9873L14.8432 18C14.3153 18.0029 13.8851 17.568 13.8823 17.0286C13.8795 16.4893 14.3052 16.0497 14.8331 16.0469L17.1798 16.0342Z" fill="#32363E"/>
<path fill-rule="evenodd" clip-rule="evenodd" d="M23.782 25.3859C24.1996 25.056 24.7999 25.1344 25.1228 25.561L26.1991 26.9829C26.1991 26.9829 26.1991 26.9829 26.1991 26.9829C26.5619 27.4622 27.1231 27.7424 27.7173 27.7405C27.7174 27.7405 27.7172 27.7405 27.7173 27.7405L32.0395 27.7249C32.5674 27.723 32.9969 28.1587 32.9987 28.6981C33.0006 29.2374 32.5742 29.6762 32.0463 29.6781L27.7241 29.6937C26.5368 29.6976 25.4137 29.138 24.6869 28.1778L23.6107 26.7559C23.2877 26.3292 23.3644 25.7159 23.782 25.3859Z" fill="#32363E"/>
<path fill-rule="evenodd" clip-rule="evenodd" d="M29.4552 14.3797C29.8285 13.9983 30.4337 13.9983 30.807 14.3797L32.7186 16.3329C33.0919 16.7143 33.0919 17.3326 32.7186 17.714L30.807 19.6672C30.4337 20.0486 29.8285 20.0486 29.4552 19.6672C29.082 19.2858 29.082 18.6675 29.4552 18.2861L30.691 17.0235L29.4552 15.7608C29.082 15.3794 29.082 14.7611 29.4552 14.3797Z" fill="#32363E"/>
<path fill-rule="evenodd" clip-rule="evenodd" d="M34.7931 1.91114H10.6046C5.79538 1.91114 1.89674 5.85446 1.89674 10.7188V33.2273C1.89674 38.0916 5.79538 42.0349 10.6046 42.0349H34.7931C39.6023 42.0349 43.501 38.0916 43.501 33.2273V10.7188C43.501 5.85446 39.6023 1.91114 34.7931 1.91114ZM10.6046 0.932514C5.26103 0.932514 0.929199 5.31398 0.929199 10.7188V33.2273C0.929199 38.6321 5.26103 43.0135 10.6046 43.0135H34.7931C40.1367 43.0135 44.4685 38.6321 44.4685 33.2273V10.7188C44.4685 5.31398 40.1367 0.932514 34.7931 0.932514H10.6046Z" fill="#32363E"/>
</svg>
