<svg width="15" height="31" viewBox="0 0 15 31" fill="none" xmlns="http://www.w3.org/2000/svg">
<path fill-rule="evenodd" clip-rule="evenodd" d="M3 15.5C3 22.1274 8.37258 27.5 15 27.5L15 30.5C6.71573 30.5 5.87108e-07 23.7843 1.31134e-06 15.5C2.03558e-06 7.21573 6.71573 0.499999 15 0.5L15 3.5C8.37259 3.5 3 8.87258 3 15.5Z" fill="#FF44CB"/>
<path fill-rule="evenodd" clip-rule="evenodd" d="M10.5 15.5C10.5 18.3767 12.6255 20.5 15 20.5L15 23.5C10.7471 23.5 7.5 19.803 7.5 15.5C7.5 11.197 10.7471 7.5 15 7.5L15 10.5C12.6255 10.5 10.5 12.6233 10.5 15.5Z" fill="#FF44CB"/>
</svg>
